<svg width="900" height="650" viewBox="0 0 900 650" fill="none" xmlns="http://www.w3.org/2000/svg">
<rect width="900" height="650" rx="36" fill="#071020"/>
<circle cx="760" cy="120" r="170" fill="url(#a)" fill-opacity="0.65"/>
<rect x="120" y="135" width="620" height="330" rx="30" fill="url(#body)" stroke="#72B1FF" stroke-opacity="0.26"/>
<rect x="155" y="170" width="550" height="260" rx="20" fill="#0A1733"/>
<path d="M185 340 C285 210, 430 195, 580 265 C625 287, 657 314, 690 350 L185 350 Z" fill="url(#wave)"/>
<path d="M170 498 L690 498 C700 498 710 506 715 516 L760 548 H100 L145 516 C150 506 160 498 170 498 Z" fill="#17315F"/>
<rect x="335" y="517" width="190" height="14" rx="7" fill="#65D6FF"/>
<rect x="214" y="208" width="140" height="14" rx="7" fill="#8FD4FF"/>
<rect x="214" y="238" width="210" height="12" rx="6" fill="#A6BEFF" fill-opacity="0.85"/>
<rect x="214" y="266" width="175" height="12" rx="6" fill="#A6BEFF" fill-opacity="0.52"/>
<defs>
<radialGradient id="a" cx="0" cy="0" r="1" gradientUnits="userSpaceOnUse" gradientTransform="translate(760 120) rotate(90) scale(170)">
<stop stop-color="#22B3FF"/><stop offset="1" stop-color="#22B3FF" stop-opacity="0"/>
</radialGradient>
<linearGradient id="body" x1="120" y1="135" x2="740" y2="465" gradientUnits="userSpaceOnUse">
<stop stop-color="#13366E"/><stop offset="1" stop-color="#0A1630"/>
</linearGradient>
<linearGradient id="wave" x1="250" y1="220" x2="670" y2="360" gradientUnits="userSpaceOnUse">
<stop stop-color="#1DE2FF"/><stop offset="1" stop-color="#2255FF"/>
</linearGradient>
</defs>
</svg>