<svg width="900" height="650" viewBox="0 0 900 650" fill="none" xmlns="http://www.w3.org/2000/svg">
<rect width="900" height="650" rx="36" fill="#071020"/>
<circle cx="180" cy="130" r="170" fill="url(#a)" fill-opacity="0.7"/>
<circle cx="760" cy="540" r="180" fill="url(#b)" fill-opacity="0.6"/>
<rect x="90" y="110" width="460" height="285" rx="26" fill="url(#screen)" stroke="#72B1FF" stroke-opacity="0.28"/>
<rect x="120" y="138" width="400" height="228" rx="18" fill="#0A1430"/>
<path d="M148 182 C220 120, 312 135, 380 188 C438 233, 457 282, 488 324 L148 324 Z" fill="url(#glow)"/>
<rect x="268" y="406" width="110" height="18" rx="9" fill="#244B86"/>
<rect x="210" y="424" width="226" height="26" rx="13" fill="#1C3766"/>
<rect x="590" y="90" width="170" height="350" rx="24" fill="url(#tower)" stroke="#72B1FF" stroke-opacity="0.3"/>
<circle cx="675" cy="160" r="28" fill="#55D5FF"/>
<circle cx="675" cy="245" r="28" fill="#55D5FF" fill-opacity="0.8"/>
<circle cx="675" cy="330" r="28" fill="#55D5FF" fill-opacity="0.55"/>
<rect x="638" y="387" width="74" height="20" rx="10" fill="#86BDFF"/>
<rect x="125" y="500" width="650" height="56" rx="28" fill="#0F2144"/>
<rect x="150" y="515" width="130" height="18" rx="9" fill="#5DDAFF"/>
<rect x="300" y="515" width="170" height="18" rx="9" fill="#7CB4FF" fill-opacity="0.8"/>
<rect x="490" y="515" width="110" height="18" rx="9" fill="#7CB4FF" fill-opacity="0.65"/>
<defs>
<radialGradient id="a" cx="0" cy="0" r="1" gradientUnits="userSpaceOnUse" gradientTransform="translate(180 130) rotate(90) scale(170)">
<stop stop-color="#1D4ED8"/><stop offset="1" stop-color="#1D4ED8" stop-opacity="0"/>
</radialGradient>
<radialGradient id="b" cx="0" cy="0" r="1" gradientUnits="userSpaceOnUse" gradientTransform="translate(760 540) rotate(90) scale(180)">
<stop stop-color="#22B3FF"/><stop offset="1" stop-color="#22B3FF" stop-opacity="0"/>
</radialGradient>
<linearGradient id="screen" x1="90" y1="110" x2="550" y2="395" gradientUnits="userSpaceOnUse">
<stop stop-color="#123061"/><stop offset="1" stop-color="#0A142C"/>
</linearGradient>
<linearGradient id="glow" x1="200" y1="160" x2="460" y2="315" gradientUnits="userSpaceOnUse">
<stop stop-color="#33B8FF"/><stop offset="1" stop-color="#2153FF"/>
</linearGradient>
<linearGradient id="tower" x1="590" y1="90" x2="760" y2="440" gradientUnits="userSpaceOnUse">
<stop stop-color="#12356E"/><stop offset="1" stop-color="#0A1430"/>
</linearGradient>
</defs>
</svg>