<svg width="900" height="650" viewBox="0 0 900 650" fill="none" xmlns="http://www.w3.org/2000/svg">
<rect width="900" height="650" rx="36" fill="#08101F"/>
<circle cx="160" cy="120" r="170" fill="url(#a)" fill-opacity="0.65"/>
<rect x="150" y="120" width="600" height="340" rx="28" fill="url(#body)" stroke="#72B1FF" stroke-opacity="0.26"/>
<rect x="185" y="155" width="530" height="270" rx="18" fill="#0A1632"/>
<rect x="220" y="195" width="160" height="18" rx="9" fill="#59D8FF"/>
<rect x="220" y="230" width="260" height="14" rx="7" fill="#8CB9FF" fill-opacity="0.85"/>
<rect x="220" y="262" width="230" height="14" rx="7" fill="#8CB9FF" fill-opacity="0.58"/>
<rect x="220" y="294" width="300" height="14" rx="7" fill="#8CB9FF" fill-opacity="0.42"/>
<rect x="250" y="460" width="400" height="26" rx="13" fill="#1E3C73"/>
<rect x="110" y="486" width="680" height="40" rx="20" fill="#14284F"/>
<rect x="320" y="500" width="260" height="12" rx="6" fill="#6CB7FF"/>
<rect x="545" y="200" width="120" height="120" rx="24" fill="url(#box)" stroke="#79B5FF" stroke-opacity="0.25"/>
<path d="M578 260 L608 230 L632 254 L592 294 L568 270 Z" fill="#62D4FF"/>
<defs>
<radialGradient id="a" cx="0" cy="0" r="1" gradientUnits="userSpaceOnUse" gradientTransform="translate(160 120) rotate(90) scale(170)">
<stop stop-color="#2159D9"/><stop offset="1" stop-color="#2159D9" stop-opacity="0"/>
</radialGradient>
<linearGradient id="body" x1="150" y1="120" x2="750" y2="460" gradientUnits="userSpaceOnUse">
<stop stop-color="#123164"/><stop offset="1" stop-color="#09162F"/>
</linearGradient>
<linearGradient id="box" x1="545" y1="200" x2="665" y2="320" gradientUnits="userSpaceOnUse">
<stop stop-color="#143972"/><stop offset="1" stop-color="#0B1733"/>
</linearGradient>
</defs>
</svg>